<?xml version="1.0" standalone="no"?>
<!DOCTYPE svg PUBLIC "-//W3C//DTD SVG 20010904//EN"
 "http://www.w3.org/TR/2001/REC-SVG-20010904/DTD/svg10.dtd">
<svg version="1.0" xmlns="http://www.w3.org/2000/svg"
 width="1200.000000pt" height="1088.000000pt" viewBox="0 0 1200.000000 1088.000000"
 preserveAspectRatio="xMidYMid meet">

<g transform="translate(0.000000,1088.000000) scale(0.100000,-0.100000)"
fill="#000000" stroke="none">
<path d="M1677 7566 c-884 -1784 -1610 -3252 -1613 -3261 -6 -15 162 -16 2060
-13 1136 2 2066 2 2066 0 0 -3 -2088 -4229 -2097 -4245 -3 -4 1077 -6 2399 -4
2445 4 2500 5 2858 43 1026 108 1492 395 1940 1198 72 129 860 1712 860 1728
0 4 -484 8 -1075 8 l-1075 0 -65 -130 c-36 -71 -68 -130 -73 -130 -4 0 -29 13
-56 28 -44 24 -52 33 -69 85 -38 117 -231 479 -351 660 -11 16 -14 27 -7 27
28 0 270 -99 409 -167 141 -70 156 -80 196 -132 58 -74 163 -174 176 -166 15
9 75 131 91 183 l13 44 14 -27 c20 -39 26 -121 13 -189 -6 -33 -9 -62 -6 -64
3 -3 43 13 89 36 96 48 175 114 214 181 23 40 27 57 27 126 0 68 -5 88 -29
135 -16 30 -44 74 -62 97 -29 36 -34 49 -34 96 0 44 -8 71 -42 138 -35 70 -60
102 -152 195 -61 61 -144 135 -184 164 l-73 53 51 28 c195 106 363 291 553
604 l84 140 131 3 c73 1 132 -1 132 -6 0 -5 -92 -196 -205 -425 -113 -229
-205 -419 -205 -422 0 -3 485 -4 1077 -3 l1077 3 608 1225 c334 674 607 1228
607 1233 1 4 -440 7 -980 7 l-981 0 74 50 c145 97 280 232 373 371 46 68 116
200 134 250 9 27 3 23 -57 -31 -133 -119 -240 -188 -370 -239 l-53 -21 64 82
c151 194 254 410 313 654 38 159 33 162 -68 37 -47 -59 -116 -140 -152 -180
-65 -70 -209 -193 -226 -193 -5 0 20 44 56 98 138 206 263 495 320 737 35 150
44 405 20 545 -16 91 -69 266 -85 283 -4 4 -11 -35 -14 -87 -4 -53 -18 -151
-31 -219 -111 -545 -463 -1006 -1086 -1421 -189 -127 -328 -207 -721 -416
-290 -155 -464 -260 -592 -357 -33 -24 -60 -43 -62 -41 -2 2 22 55 52 118 185
389 202 716 50 954 -22 35 -28 51 -18 54 7 2 59 28 116 57 273 140 479 323
647 574 68 103 428 816 523 1036 181 423 191 733 32 973 -170 255 -493 386
-1102 446 -380 38 -440 39 -2656 43 l-2186 4 -1606 -3245z m5838 2984 c844
-31 1235 -112 1435 -297 189 -175 185 -430 -13 -869 -98 -218 -432 -874 -485
-954 -32 -48 -106 -135 -172 -201 -129 -130 -254 -219 -413 -294 -107 -51
-357 -136 -454 -155 -35 -7 -63 -16 -63 -20 0 -4 32 -19 70 -34 259 -102 389
-313 352 -572 -7 -48 -26 -128 -42 -178 -28 -86 -364 -787 -515 -1071 -38 -71
-109 -209 -157 -305 -49 -96 -93 -179 -97 -183 -5 -4 -27 22 -50 59 l-42 67
36 66 c73 136 628 1259 655 1327 40 99 53 178 48 286 -6 129 -40 200 -143 296
-123 115 -289 185 -560 237 -80 15 -112 24 -95 28 14 3 108 22 208 42 667 131
1090 359 1327 714 73 110 434 836 509 1022 94 235 113 398 61 504 -82 168
-350 262 -880 310 -376 33 -597 37 -2546 42 l-1955 5 -664 -1338 c-1418 -2861
-2170 -4384 -2170 -4395 0 -9 461 -11 1849 -7 l1850 5 60 -68 60 -67 -312 -6
c-172 -4 -1085 -6 -2029 -4 l-1717 3 1250 2525 c688 1389 1358 2742 1489 3008
l238 482 1904 0 c1058 0 2023 -5 2173 -10z m-282 -968 c98 -33 170 -104 188
-185 25 -115 -1 -188 -231 -647 -65 -129 -139 -263 -164 -297 -115 -152 -329
-257 -577 -283 -63 -6 -494 -10 -1143 -10 l-1042 0 -37 75 -37 74 1153 3 1152
3 80 23 c126 35 218 85 295 161 64 64 72 77 223 384 172 349 187 386 187 453
0 56 -26 85 -101 111 -51 17 -131 18 -1370 21 l-1315 3 -205 -417 -204 -416
-12 42 c-7 23 -17 76 -24 118 l-11 77 181 368 182 367 1382 -2 1382 -3 68 -23z
m-263 -371 c0 -12 -219 -457 -248 -503 -29 -46 -98 -92 -182 -121 l-65 -22
-1072 -3 c-590 -1 -1073 -1 -1073 1 0 2 72 151 160 330 l160 327 1160 0 c663
0 1160 -4 1160 -9z m-899 -1900 c80 -21 148 -69 182 -129 26 -46 29 -63 29
-131 0 -104 -36 -208 -153 -451 l-92 -189 -40 32 c-21 18 -48 39 -59 47 -19
16 -17 21 66 188 97 199 124 272 133 359 5 59 4 63 -24 91 -48 48 -90 52 -576
52 l-442 0 -80 75 -80 75 545 -4 c377 -2 559 -7 591 -15z m-231 -391 c0 -6
-27 -65 -60 -131 -44 -87 -64 -118 -73 -112 -79 60 -307 244 -307 248 0 3 99
5 220 5 142 0 220 -4 220 -10z m-2848 -282 c13 -24 32 -55 41 -69 17 -26 16
-28 -203 -470 -121 -244 -220 -447 -220 -451 0 -5 293 -9 652 -10 l652 -3 22
-70 22 -70 -791 -3 c-434 -1 -792 -1 -794 1 -5 5 581 1187 589 1187 3 0 17
-19 30 -42z m8490 -375 c-37 -76 -257 -519 -488 -985 l-419 -848 -797 0 -797
0 33 73 c18 39 113 231 210 424 97 194 176 355 176 358 0 2 -121 6 -269 7
l-268 3 36 65 37 65 347 3 c191 1 347 1 347 -1 0 -2 -92 -192 -205 -421 -113
-230 -205 -419 -205 -422 0 -2 285 -4 633 -4 l633 0 410 826 c225 454 410 830
412 835 2 5 -308 10 -770 11 l-773 3 105 72 105 73 788 0 787 0 -68 -137z
m-8222 0 c19 -26 106 -120 194 -210 l159 -163 -302 0 c-165 0 -301 2 -301 5 0
10 205 415 210 415 3 0 21 -22 40 -47z m4235 -1854 c269 -88 549 -252 722
-424 111 -110 157 -185 169 -279 l7 -49 -33 6 c-18 4 -53 7 -78 7 -43 0 -44 1
-29 18 18 20 23 57 8 67 -5 3 -12 -4 -16 -15 -8 -24 -46 -36 -73 -21 -11 6
-40 50 -66 99 -46 90 -95 146 -157 178 -29 15 -27 11 18 -33 54 -52 75 -94 52
-102 -7 -2 -23 -14 -36 -27 -63 -63 13 -172 94 -135 21 10 29 8 53 -13 l29
-24 -42 -10 c-34 -9 -55 -7 -110 8 -37 10 -99 22 -138 26 l-70 7 24 -64 c14
-35 36 -90 50 -121 14 -32 24 -58 22 -58 -3 0 -30 16 -61 36 -146 94 -463 226
-674 281 l-35 9 85 55 c47 31 113 71 147 90 43 23 59 37 53 44 -19 23 -226
124 -313 153 l-88 30 48 16 c86 29 203 46 309 46 57 0 104 2 104 4 0 9 -74
134 -104 176 -51 72 -51 72 -19 65 15 -4 82 -24 148 -46z m-2855 -102 c0 -1
-429 -871 -954 -1932 -525 -1062 -952 -1933 -950 -1937 7 -11 3209 -9 3739 2
242 5 505 14 585 20 803 58 1206 193 1520 509 203 205 280 331 646 1067 156
314 284 574 284 577 0 4 -287 7 -639 7 l-639 0 -58 26 c-33 15 -60 28 -62 29
-2 2 7 23 20 49 l22 46 798 0 c439 0 798 -2 798 -4 0 -11 -661 -1330 -704
-1406 -222 -390 -449 -626 -746 -775 -307 -154 -656 -229 -1290 -276 -176 -14
-4510 -25 -4510 -13 0 23 1977 4004 1990 4008 17 4 150 7 150 3z m3410 -493
c0 -8 -7 -22 -15 -30 -8 -9 -15 -25 -15 -37 -1 -22 -1 -22 -15 -3 -19 26 -19
45 2 68 20 22 43 24 43 2z m111 -218 c44 11 96 15 152 13 84 -4 87 -5 125 -42
48 -46 83 -115 90 -173 3 -34 -1 -52 -21 -87 -22 -36 -89 -97 -109 -97 -3 0
-8 18 -12 41 -4 22 -15 57 -25 78 -25 48 -106 123 -167 154 -60 30 -195 79
-201 73 -6 -6 62 -175 105 -261 44 -87 19 -69 -49 38 -46 71 -113 209 -133
274 l-7 22 92 -25 c90 -24 94 -24 160 -8z m43 -215 c-7 -29 -35 -121 -37 -121
-1 0 -2 40 -2 89 l0 88 22 -15 c18 -11 21 -20 17 -41z m-2906 -185 c38 -105
166 -250 297 -336 127 -82 316 -162 440 -186 52 -9 30 -20 -93 -45 -127 -25
-340 -35 -462 -20 -202 25 -410 94 -592 197 -93 52 -248 161 -248 173 0 3 40
14 88 23 164 32 379 117 507 201 22 14 42 26 45 26 4 1 11 -14 18 -33z m1322
-398 c47 -16 123 -35 169 -43 66 -12 93 -22 131 -50 74 -54 76 -60 37 -83 -73
-46 -101 -153 -68 -266 l14 -49 20 42 c26 55 89 108 151 126 63 19 80 19 146
-1 157 -47 180 -205 52 -363 -33 -41 -34 -43 -11 -36 48 14 145 74 180 112 51
53 72 99 73 160 0 29 2 53 4 53 21 0 96 -61 113 -92 12 -22 -179 -408 -240
-485 -51 -65 -117 -111 -193 -135 -57 -17 -116 -18 -1099 -18 -571 0 -1039 2
-1039 3 0 2 87 181 194 398 l194 395 98 -8 c168 -14 383 7 531 51 85 26 104
44 244 245 l94 134 60 -30 c33 -17 98 -44 145 -60z m621 -101 c169 -75 276
-137 349 -203 69 -63 68 -78 -3 -34 -54 34 -167 83 -174 76 -1 -1 4 -20 12
-41 8 -22 14 -60 14 -85 l0 -45 -24 49 c-71 142 -172 201 -300 177 -27 -5 -59
-13 -70 -17 -18 -7 -18 -6 -7 9 8 9 34 30 58 46 l44 29 -47 35 c-27 19 -64 44
-83 56 l-35 21 51 0 c41 0 81 -13 215 -73z m491 24 c24 -11 115 -41 202 -66
174 -50 276 -96 321 -146 23 -25 25 -30 10 -24 -81 32 -148 55 -162 55 -14 0
-14 -2 0 -23 8 -13 20 -41 26 -62 l10 -39 -47 46 c-89 86 -190 115 -302 84
-30 -8 -56 -13 -58 -12 -1 2 16 23 38 48 l39 45 -57 26 c-31 14 -73 32 -92 39
l-35 15 30 16 c17 9 31 16 31 17 1 0 21 -9 46 -19z m-2612 -190 c36 -10 64
-23 63 -28 -1 -5 -121 -251 -267 -547 -180 -364 -261 -539 -252 -542 7 -3 572
-3 1257 -2 1392 4 1282 -2 1444 77 88 43 182 122 242 203 21 28 117 208 214
401 l175 349 32 -27 c34 -29 57 -92 46 -127 -3 -12 -73 -157 -155 -322 -118
-241 -160 -317 -212 -382 -84 -105 -169 -174 -282 -229 -179 -86 -43 -79
-1613 -83 -938 -2 -1393 1 -1390 8 9 27 624 1269 628 1269 3 0 34 -8 70 -18z"/>
<path d="M8295 3580 c-18 -8 -18 -9 6 -9 14 -1 48 -8 75 -16 l49 -14 -28 24
c-29 25 -65 31 -102 15z"/>
</g>
</svg>
