<?xml version="1.0" encoding="UTF-8"?>
<!DOCTYPE svg PUBLIC "-//W3C//DTD SVG 1.1//EN" "http://www.w3.org/Graphics/SVG/1.1/DTD/svg11.dtd">
<svg xmlns="http://www.w3.org/2000/svg" version="1.1" width="662px" height="439px" style="shape-rendering:geometricPrecision; text-rendering:geometricPrecision; image-rendering:optimizeQuality; fill-rule:evenodd; clip-rule:evenodd" xmlns:xlink="http://www.w3.org/1999/xlink">
<g><path style="opacity:1" fill="#000000" d="M 351.5,87.5 C 351.082,88.2216 350.416,88.7216 349.5,89C 354.088,91.1579 358.755,91.9912 363.5,91.5C 392.658,101.823 412.824,121.49 424,150.5C 428.99,166.231 430.49,182.231 428.5,198.5C 426.904,203.589 425.238,208.755 423.5,214C 424.252,214.671 424.586,215.504 424.5,216.5C 424.396,218.703 423.73,220.703 422.5,222.5C 421.5,222.167 420.833,221.5 420.5,220.5C 422.46,214.657 423.794,208.657 424.5,202.5C 421.109,213.331 417.109,223.998 412.5,234.5C 409.117,238.553 406.117,242.886 403.5,247.5C 401.167,249.167 399.167,251.167 397.5,253.5C 396.5,253.833 395.833,254.5 395.5,255.5C 394.833,255.5 394.5,255.833 394.5,256.5C 393.833,256.5 393.5,256.833 393.5,257.5C 392.833,257.5 392.5,257.833 392.5,258.5C 391.833,258.5 391.5,258.833 391.5,259.5C 390.833,259.5 390.5,259.833 390.5,260.5C 385.807,263.603 380.973,266.603 376,269.5C 375.536,268.906 375.369,268.239 375.5,267.5C 381.265,263.583 386.932,259.416 392.5,255C 394.79,253.223 396.457,251.056 397.5,248.5C 398.167,248.5 398.5,248.167 398.5,247.5C 398.833,247.5 399.167,247.5 399.5,247.5C 402.786,245.608 403.786,242.942 402.5,239.5C 403.906,239.027 404.573,238.027 404.5,236.5C 425.876,201.011 425.71,165.678 404,130.5C 376.542,95.4598 341.375,84.2931 298.5,97C 271.526,107.475 253.192,126.308 243.5,153.5C 242.5,152.167 241.5,150.833 240.5,149.5C 253.053,116.118 276.719,95.2845 311.5,87C 324.886,84.8918 338.22,85.0585 351.5,87.5 Z"/></g>
<g><path style="opacity:1" fill="#000000" d="M 351.5,87.5 C 355.785,88.2616 359.785,89.5949 363.5,91.5C 358.755,91.9912 354.088,91.1579 349.5,89C 350.416,88.7216 351.082,88.2216 351.5,87.5 Z"/></g>
<g><path style="opacity:1" fill="#757575" d="M 289.5,154.5 C 291.035,153.212 292.701,153.212 294.5,154.5C 294.376,155.107 294.043,155.44 293.5,155.5C 292.432,154.566 291.099,154.232 289.5,154.5 Z"/></g>
<g><path style="opacity:1" fill="#000000" d="M 358.5,155.5 C 352.734,154.196 347.067,154.196 341.5,155.5C 340.957,155.44 340.624,155.107 340.5,154.5C 343.5,154.167 346.5,153.833 349.5,153.5C 352.913,153.517 355.913,154.184 358.5,155.5 Z"/></g>
<g><path style="opacity:1" fill="#000000" d="M 376.5,154.5 C 382.013,153.184 387.68,153.184 393.5,154.5C 393.376,155.107 393.043,155.44 392.5,155.5C 387.36,154.512 382.026,154.179 376.5,154.5 Z"/></g>
<g><path style="opacity:1" fill="#000000" d="M 289.5,154.5 C 291.099,154.232 292.432,154.566 293.5,155.5C 289.884,168.9 285.551,182.066 280.5,195C 285.864,195.171 291.198,195.671 296.5,196.5C 297.246,197.736 297.579,199.07 297.5,200.5C 291.167,200.5 284.833,200.5 278.5,200.5C 277.242,205.942 275.575,211.276 273.5,216.5C 271.955,217.452 270.288,217.785 268.5,217.5C 274.928,196.216 281.928,175.216 289.5,154.5 Z"/></g>
<g><path style="opacity:1" fill="#000000" d="M 240.5,149.5 C 241.5,150.833 242.5,152.167 243.5,153.5C 241.7,159.034 240.367,164.701 239.5,170.5C 238.778,170.082 238.278,169.416 238,168.5C 237.667,169.5 237.333,170.5 237,171.5C 236.536,170.906 236.369,170.239 236.5,169.5C 236.652,165.738 237.319,162.072 238.5,158.5C 237.509,155.138 238.176,152.138 240.5,149.5 Z"/></g>
<g><path style="opacity:1" fill="#000000" d="M 316.5,215.5 C 314.95,216.72 313.284,216.72 311.5,215.5C 306.435,201.306 301.769,186.973 297.5,172.5C 297.719,171.325 297.386,170.325 296.5,169.5C 295.702,169.957 295.369,170.624 295.5,171.5C 293.771,178.686 291.438,185.686 288.5,192.5C 286.955,193.452 285.288,193.785 283.5,193.5C 287.232,180.304 291.565,167.304 296.5,154.5C 303.97,174.577 310.637,194.91 316.5,215.5 Z"/></g>
<g><path style="opacity:1" fill="#000000" d="M 235.5,161.5 C 236.833,162.167 236.833,162.167 235.5,161.5 Z"/></g>
<g><path style="opacity:1" fill="#000000" d="M 358.5,155.5 C 361.559,159.937 364.392,164.603 367,169.5C 370.191,164.436 373.358,159.436 376.5,154.5C 382.026,154.179 387.36,154.512 392.5,155.5C 387.336,165.833 381.669,175.833 375.5,185.5C 375.672,184.508 375.338,183.842 374.5,183.5C 378.707,174.615 383.374,165.949 388.5,157.5C 386.741,156.246 385.241,156.579 384,158.5C 379.645,167.224 374.812,175.557 369.5,183.5C 369.672,182.508 369.338,181.842 368.5,181.5C 372.3,173.235 376.633,165.235 381.5,157.5C 379.091,156.278 377.258,156.945 376,159.5C 372.171,167.163 367.837,174.496 363,181.5C 358.247,173.662 353.747,165.662 349.5,157.5C 348.277,156.386 346.944,156.219 345.5,157C 350.241,164.983 354.574,173.149 358.5,181.5C 357.662,181.842 357.328,182.508 357.5,183.5C 351.664,174.5 346.331,165.167 341.5,155.5C 347.067,154.196 352.734,154.196 358.5,155.5 Z M 352.5,157.5 C 354.795,156.208 356.628,156.874 358,159.5C 360.5,164 363,168.5 365.5,173C 364.953,173.925 364.287,174.758 363.5,175.5C 359.808,169.436 356.141,163.436 352.5,157.5 Z"/></g>
<g><path style="opacity:1" fill="#000000" d="M 297.5,172.5 C 296.833,172.167 296.167,171.833 295.5,171.5C 295.369,170.624 295.702,169.957 296.5,169.5C 297.386,170.325 297.719,171.325 297.5,172.5 Z"/></g>
<g><path style="opacity:1" fill="#000000" d="M 239.5,170.5 C 238.781,175.118 238.281,179.785 238,184.5C 235.71,186.713 234.543,185.88 234.5,182C 235.008,177.665 235.675,173.499 236.5,169.5C 236.369,170.239 236.536,170.906 237,171.5C 237.333,170.5 237.667,169.5 238,168.5C 238.278,169.416 238.778,170.082 239.5,170.5 Z"/></g>
<g><path style="opacity:1" fill="#000000" d="M 295.5,175.5 C 296.117,175.611 296.617,175.944 297,176.5C 301.401,189.87 305.901,203.204 310.5,216.5C 308.647,217.76 306.814,217.76 305,216.5C 303.451,213.688 302.618,210.688 302.5,207.5C 296.463,207.829 290.463,207.496 284.5,206.5C 283.833,205.5 283.167,204.5 282.5,203.5C 288.128,202.505 293.794,202.171 299.5,202.5C 298.2,195.806 296.2,189.306 293.5,183C 294.479,180.567 295.145,178.067 295.5,175.5 Z"/></g>
<g><path style="opacity:1" fill="#000000" d="M 426.5,189.5 C 426.806,186.615 426.473,183.948 425.5,181.5C 424.888,177.837 424.721,174.17 425,170.5C 425.333,170.167 425.667,169.833 426,169.5C 427.626,176.287 427.792,182.954 426.5,189.5 Z"/></g>
<g><path style="opacity:1" fill="#000000" d="M 358.5,181.5 C 359.79,182.058 360.623,183.058 361,184.5C 361.5,194.494 361.666,204.494 361.5,214.5C 363.167,214.5 364.833,214.5 366.5,214.5C 366.808,204.78 366.474,195.113 365.5,185.5C 366.521,184.099 367.521,182.765 368.5,181.5C 369.338,181.842 369.672,182.508 369.5,183.5C 368.548,193.782 368.214,204.115 368.5,214.5C 369.5,214.5 370.5,214.5 371.5,214.5C 371.334,205.161 371.5,195.827 372,186.5C 372.377,185.058 373.21,184.058 374.5,183.5C 375.338,183.842 375.672,184.508 375.5,185.5C 375.672,186.492 375.338,187.158 374.5,187.5C 373.506,196.986 373.173,206.652 373.5,216.5C 368.833,216.5 364.167,216.5 359.5,216.5C 359.828,205.986 359.494,195.653 358.5,185.5C 357.662,185.158 357.328,184.492 357.5,183.5C 357.328,182.508 357.662,181.842 358.5,181.5 Z"/></g>
<g><path style="opacity:1" fill="#000000" d="M 358.5,185.5 C 359.494,195.653 359.828,205.986 359.5,216.5C 364.167,216.5 368.833,216.5 373.5,216.5C 373.173,206.652 373.506,196.986 374.5,187.5C 374.5,197.5 374.5,207.5 374.5,217.5C 369.167,217.5 363.833,217.5 358.5,217.5C 358.5,206.833 358.5,196.167 358.5,185.5 Z"/></g>
<g><path style="opacity:1" fill="#000000" d="M 425.5,181.5 C 426.473,183.948 426.806,186.615 426.5,189.5C 426.844,194.122 426.177,198.455 424.5,202.5C 424.999,195.51 425.332,188.51 425.5,181.5 Z"/></g>
<g><path style="opacity:1" fill="#000000" d="M 428.5,198.5 C 428.084,204.818 426.751,210.818 424.5,216.5C 424.586,215.504 424.252,214.671 423.5,214C 425.238,208.755 426.904,203.589 428.5,198.5 Z"/></g>
<g><path style="opacity:1" fill="#000000" d="M 279.5,203.5 C 281.534,204.548 282.867,206.214 283.5,208.5C 282.5,211.167 281.5,213.833 280.5,216.5C 278.955,217.452 277.288,217.785 275.5,217.5C 276.635,212.764 277.968,208.097 279.5,203.5 Z"/></g>
<g><path style="opacity:1" fill="#000000" d="M 424.5,202.5 C 423.794,208.657 422.46,214.657 420.5,220.5C 418.766,225.702 416.1,230.368 412.5,234.5C 417.109,223.998 421.109,213.331 424.5,202.5 Z"/></g>
<g><path style="opacity:1" fill="#000000" d="M 311.5,215.5 C 313.284,216.72 314.95,216.72 316.5,215.5C 317.043,215.56 317.376,215.893 317.5,216.5C 316.5,216.833 315.5,217.167 314.5,217.5C 312.97,217.36 311.97,216.693 311.5,215.5 Z"/></g>
<g><path style="opacity:1" fill="#000000" d="M 243.5,228.5 C 244.833,229.167 244.833,229.167 243.5,228.5 Z"/></g>
<g><path style="opacity:1" fill="#000000" d="M 244.5,230.5 C 245.289,230.783 245.956,231.283 246.5,232C 245.184,232.528 244.517,232.028 244.5,230.5 Z"/></g>
<g><path style="opacity:1" fill="#000000" d="M 260.5,252.5 C 259.448,252.649 258.448,252.483 257.5,252C 255.108,247.155 251.942,242.322 248,237.5C 247.018,236.241 246.685,234.908 247,233.5C 251.356,240.009 255.856,246.342 260.5,252.5 Z"/></g>
<g><path style="opacity:1" fill="#000000" d="M 412.5,234.5 C 410.696,239.317 408.029,243.65 404.5,247.5C 404.167,247.5 403.833,247.5 403.5,247.5C 406.117,242.886 409.117,238.553 412.5,234.5 Z"/></g>
<g><path style="opacity:1" fill="#000000" d="M 404.5,236.5 C 404.573,238.027 403.906,239.027 402.5,239.5C 402.427,237.973 403.094,236.973 404.5,236.5 Z"/></g>
<g><path style="opacity:1" fill="#000000" d="M 420.5,220.5 C 420.833,221.5 421.5,222.167 422.5,222.5C 417.757,234.999 410.757,245.999 401.5,255.5C 400.609,254.89 399.609,254.557 398.5,254.5C 400.5,252.167 402.5,249.833 404.5,247.5C 408.029,243.65 410.696,239.317 412.5,234.5C 416.1,230.368 418.766,225.702 420.5,220.5 Z"/></g>
<g><path style="opacity:1" fill="#000000" d="M 402.5,239.5 C 403.786,242.942 402.786,245.608 399.5,247.5C 399.167,246.167 398.833,246.167 398.5,247.5C 397.833,247.5 397.5,247.833 397.5,248.5C 397.167,248.5 396.833,248.5 396.5,248.5C 396.5,247.833 396.167,247.5 395.5,247.5C 397.778,244.781 400.111,242.114 402.5,239.5 Z"/></g>
<g><path style="opacity:1" fill="#000000" d="M 395.5,247.5 C 396.167,247.5 396.5,247.833 396.5,248.5C 393.399,251.933 389.732,254.6 385.5,256.5C 388.808,253.529 392.141,250.529 395.5,247.5 Z"/></g>
<g><path style="opacity:0.4" fill="#000000" d="M 385.5,256.5 C 384.833,257.167 384.833,257.167 385.5,256.5 Z"/></g>
<g><path style="opacity:0.133" fill="#000000" d="M 260.5,252.5 C 263.526,255.195 266.526,257.862 269.5,260.5C 266.475,260.769 263.808,259.936 261.5,258C 263.878,257.026 263.544,256.359 260.5,256C 260.201,254.927 260.201,253.76 260.5,252.5 Z"/></g>
<g><path style="opacity:1" fill="#000000" d="M 272.5,258.5 C 273.833,259.167 273.833,259.167 272.5,258.5 Z"/></g>
<g><path style="opacity:1" fill="#000000" d="M 269.5,260.5 C 270.167,260.5 270.5,260.833 270.5,261.5C 270.167,261.167 269.833,260.833 269.5,260.5 Z"/></g>
<g><path style="opacity:1" fill="#000000" d="M 270.5,261.5 C 271.167,261.5 271.5,261.833 271.5,262.5C 271.167,262.167 270.833,261.833 270.5,261.5 Z"/></g>
<g><path style="opacity:1" fill="#000000" d="M 275.5,261.5 C 276.833,262.167 276.833,262.167 275.5,261.5 Z"/></g>
<g><path style="opacity:1" fill="#000000" d="M 397.5,253.5 C 397.5,254.167 397.833,254.5 398.5,254.5C 399.609,254.557 400.609,254.89 401.5,255.5C 397.153,259.845 392.486,263.845 387.5,267.5C 386.439,266.96 385.439,266.626 384.5,266.5C 386.806,264.861 388.806,262.861 390.5,260.5C 390.5,259.833 390.833,259.5 391.5,259.5C 392.167,259.5 392.5,259.167 392.5,258.5C 392.5,257.833 392.833,257.5 393.5,257.5C 394.167,257.5 394.5,257.167 394.5,256.5C 395.167,256.5 395.5,256.167 395.5,255.5C 395.833,254.5 396.5,253.833 397.5,253.5 Z"/></g>
<g><path style="opacity:1" fill="#000000" d="M 271.5,262.5 C 272.492,262.328 273.158,262.662 273.5,263.5C 272.508,263.672 271.842,263.338 271.5,262.5 Z"/></g>
<g><path style="opacity:1" fill="#000000" d="M 278.5,263.5 C 277.833,262.167 277.833,262.167 278.5,263.5 Z"/></g>
<g><path style="opacity:1" fill="#000000" d="M 273.5,263.5 C 274.167,263.5 274.5,263.833 274.5,264.5C 274.167,264.167 273.833,263.833 273.5,263.5 Z"/></g>
<g><path style="opacity:1" fill="#000000" d="M 278.5,263.5 C 279.833,264.167 279.833,264.167 278.5,263.5 Z"/></g>
<g><path style="opacity:1" fill="#000000" d="M 274.5,264.5 C 275.167,264.5 275.5,264.833 275.5,265.5C 275.167,265.167 274.833,264.833 274.5,264.5 Z"/></g>
<g><path style="opacity:1" fill="#000000" d="M 280.5,264.5 C 281.833,265.167 281.833,265.167 280.5,264.5 Z"/></g>
<g><path style="opacity:1" fill="#000000" d="M 288.5,264.5 C 289.833,265.167 289.833,265.167 288.5,264.5 Z"/></g>
<g><path style="opacity:1" fill="#000000" d="M 390.5,260.5 C 388.806,262.861 386.806,264.861 384.5,266.5C 380.286,268.774 375.953,270.774 371.5,272.5C 369.776,272.461 369.443,272.794 370.5,273.5C 370.158,274.338 369.492,274.672 368.5,274.5C 368.351,273.448 368.517,272.448 369,271.5C 371.278,270.281 373.445,268.948 375.5,267.5C 375.369,268.239 375.536,268.906 376,269.5C 380.973,266.603 385.807,263.603 390.5,260.5 Z"/></g>
<g><path style="opacity:1" fill="#000000" d="M 275.5,265.5 C 276.492,265.328 277.158,265.662 277.5,266.5C 276.508,266.672 275.842,266.338 275.5,265.5 Z"/></g>
<g><path style="opacity:1" fill="#000000" d="M 290.5,265.5 C 291.833,266.167 291.833,266.167 290.5,265.5 Z"/></g>
<g><path style="opacity:1" fill="#000000" d="M 277.5,266.5 C 278.167,266.5 278.5,266.833 278.5,267.5C 278.167,267.167 277.833,266.833 277.5,266.5 Z"/></g>
<g><path style="opacity:1" fill="#000000" d="M 284.5,267.5 C 283.833,266.167 283.833,266.167 284.5,267.5 Z"/></g>
<g><path style="opacity:1" fill="#000000" d="M 292.5,266.5 C 293.833,267.167 293.833,267.167 292.5,266.5 Z"/></g>
<g><path style="opacity:1" fill="#000000" d="M 278.5,267.5 C 279.239,267.369 279.906,267.536 280.5,268C 279.563,268.692 278.897,268.525 278.5,267.5 Z"/></g>
<g><path style="opacity:1" fill="#000000" d="M 284.5,267.5 C 285.492,267.328 286.158,267.662 286.5,268.5C 285.508,268.672 284.842,268.338 284.5,267.5 Z"/></g>
<g><path style="opacity:1" fill="#000000" d="M 283.5,270.5 C 282.833,269.167 282.833,269.167 283.5,270.5 Z"/></g>
<g><path style="opacity:1" fill="#000000" d="M 286.5,268.5 C 288.153,268.66 289.486,269.326 290.5,270.5C 288.678,271.429 287.345,270.762 286.5,268.5 Z"/></g>
<g><path style="opacity:1" fill="#000000" d="M 360.5,270.5 C 361.251,269.427 362.251,269.26 363.5,270C 362.552,270.483 361.552,270.649 360.5,270.5 Z"/></g>
<g><path style="opacity:1" fill="#000000" d="M 283.5,270.5 C 284.833,271.167 284.833,271.167 283.5,270.5 Z"/></g>
<g><path style="opacity:1" fill="#000000" d="M 290.5,270.5 C 292.153,270.66 293.486,271.326 294.5,272.5C 292.62,272.771 291.287,272.104 290.5,270.5 Z"/></g>
<g><path style="opacity:1" fill="#000000" d="M 360.5,270.5 C 360.103,271.525 359.437,271.692 358.5,271C 359.094,270.536 359.761,270.369 360.5,270.5 Z"/></g>
<g><path style="opacity:1" fill="#000000" d="M 285.5,271.5 C 286.833,272.167 286.833,272.167 285.5,271.5 Z"/></g>
<g><path style="opacity:0.133" fill="#000000" d="M 356.5,271.5 C 357.833,272.167 357.833,272.167 356.5,271.5 Z"/></g>
<g><path style="opacity:1" fill="#000000" d="M 288.5,272.5 C 289.833,273.167 289.833,273.167 288.5,272.5 Z"/></g>
<g><path style="opacity:1" fill="#000000" d="M 294.5,272.5 C 295.239,272.369 295.906,272.536 296.5,273C 295.563,273.692 294.897,273.525 294.5,272.5 Z"/></g>
<g><path style="opacity:0.133" fill="#000000" d="M 366.5,272.5 C 367.833,273.167 367.833,273.167 366.5,272.5 Z"/></g>
<g><path style="opacity:1" fill="#000000" d="M 299.5,274.5 C 298.761,274.631 298.094,274.464 297.5,274C 298.437,273.308 299.103,273.475 299.5,274.5 Z"/></g>
<g><path style="opacity:1" fill="#000000" d="M 299.5,274.5 C 300.833,275.167 300.833,275.167 299.5,274.5 Z"/></g>
<g><path style="opacity:1" fill="#000000" d="M 302.5,275.5 C 301.833,274.167 301.833,274.167 302.5,275.5 Z"/></g>
<g><path style="opacity:1" fill="#000000" d="M 293.5,275.5 C 294.833,276.167 294.833,276.167 293.5,275.5 Z"/></g>
<g><path style="opacity:1" fill="#000000" d="M 302.5,275.5 C 303.552,275.351 304.552,275.517 305.5,276C 304.251,276.74 303.251,276.573 302.5,275.5 Z"/></g>
<g><path style="opacity:1" fill="#000000" d="M 298.5,277.5 C 297.761,277.631 297.094,277.464 296.5,277C 297.437,276.308 298.103,276.475 298.5,277.5 Z"/></g>
<g><path style="opacity:1" fill="#000000" d="M 308.5,276.5 C 309.833,277.167 309.833,277.167 308.5,276.5 Z"/></g>
<g><path style="opacity:1" fill="#000000" d="M 298.5,277.5 C 299.492,277.328 300.158,277.662 300.5,278.5C 299.508,278.672 298.842,278.338 298.5,277.5 Z"/></g>
<g><path style="opacity:1" fill="#000000" d="M 300.5,278.5 C 303.152,278.41 305.485,279.076 307.5,280.5C 304.848,280.59 302.515,279.924 300.5,278.5 Z"/></g>
<g><path style="opacity:1" fill="#000000" d="M 316.5,278.5 C 317.833,279.167 317.833,279.167 316.5,278.5 Z"/></g>
<g><path style="opacity:1" fill="#000000" d="M 307.5,280.5 C 308.552,280.351 309.552,280.517 310.5,281C 309.251,281.74 308.251,281.573 307.5,280.5 Z"/></g>
<g><path style="opacity:1" fill="#000000" d="M 332.5,281.5 C 333.601,280.402 334.934,280.235 336.5,281C 335.207,281.49 333.873,281.657 332.5,281.5 Z"/></g>
<g><path style="opacity:1" fill="#000000" d="M 339.5,281.5 C 338.761,281.631 338.094,281.464 337.5,281C 338.437,280.308 339.103,280.475 339.5,281.5 Z"/></g>
<g><path style="opacity:1" fill="#000000" d="M 314.5,281.5 C 315.833,282.167 315.833,282.167 314.5,281.5 Z"/></g>
<g><path style="opacity:1" fill="#000000" d="M 316.5,281.5 C 317.833,282.167 317.833,282.167 316.5,281.5 Z"/></g>
<g><path style="opacity:1" fill="#000000" d="M 318.5,282.5 C 318.897,281.475 319.563,281.308 320.5,282C 319.906,282.464 319.239,282.631 318.5,282.5 Z"/></g>
<g><path style="opacity:1" fill="#000000" d="M 384.5,266.5 C 385.439,266.626 386.439,266.96 387.5,267.5C 373.422,277.364 357.756,283.031 340.5,284.5C 339.127,284.657 337.793,284.49 336.5,284C 339.38,283.65 342.047,282.817 344.5,281.5C 345.75,281.423 346.583,280.756 347,279.5C 347.725,280.059 348.558,280.392 349.5,280.5C 351.477,279.54 353.477,278.54 355.5,277.5C 358.919,278.415 361.753,277.415 364,274.5C 365.414,275.413 366.914,275.413 368.5,274.5C 369.492,274.672 370.158,274.338 370.5,273.5C 371.167,273.5 371.5,273.167 371.5,272.5C 375.953,270.774 380.286,268.774 384.5,266.5 Z"/></g>
<g><path style="opacity:1" fill="#000000" d="M 344.5,281.5 C 342.047,282.817 339.38,283.65 336.5,284C 337.793,284.49 339.127,284.657 340.5,284.5C 339.207,285.158 337.707,285.492 336,285.5C 332.729,283.956 328.562,283.123 323.5,283C 329.016,282.827 334.349,282.327 339.5,281.5C 341.334,280.506 343.001,280.506 344.5,281.5 Z"/></g>
<g><path style="opacity:1" fill="#3ea7ae" d="M 480.5,332.5 C 480.5,331.5 480.5,330.5 480.5,329.5C 483.833,329.5 487.167,329.5 490.5,329.5C 490.5,334.5 490.5,339.5 490.5,344.5C 483.438,347.328 476.438,347.162 469.5,344C 462.957,337.402 461.791,329.902 466,321.5C 473.512,313.593 481.679,312.759 490.5,319C 489.601,320.236 488.434,321.07 487,321.5C 474.282,316.197 467.948,320.53 468,334.5C 471.697,341.926 477.53,344.259 485.5,341.5C 486.484,338.572 486.817,335.572 486.5,332.5C 484.5,332.5 482.5,332.5 480.5,332.5 Z"/></g>
<g><path style="opacity:1" fill="#3b9ca3" d="M 185.5,315.5 C 186.978,315.238 188.311,315.571 189.5,316.5C 194.097,326.297 198.097,336.297 201.5,346.5C 196.91,346.068 194.577,343.402 194.5,338.5C 189.456,338.173 184.456,338.506 179.5,339.5C 178.764,341.541 177.931,343.541 177,345.5C 175.644,346.38 174.144,346.714 172.5,346.5C 176.554,336.058 180.887,325.725 185.5,315.5 Z M 186.5,321.5 C 188.597,325.53 190.597,329.697 192.5,334C 188.833,334.667 185.167,334.667 181.5,334C 183.857,330.093 185.524,325.927 186.5,321.5 Z"/></g>
<g><path style="opacity:1" fill="#3b9fa6" d="M 212.5,315.5 C 220.206,314.665 227.539,315.831 234.5,319C 241.424,327.352 241.091,335.352 233.5,343C 226.856,346.066 219.856,347.232 212.5,346.5C 212.5,336.167 212.5,325.833 212.5,315.5 Z M 216.5,319.5 C 230.732,317.889 236.232,323.889 233,337.5C 228.231,341.224 222.731,342.891 216.5,342.5C 216.5,334.833 216.5,327.167 216.5,319.5 Z"/></g>
<g><path style="opacity:1" fill="#3ca0a6" d="M 261.5,315.5 C 263.144,315.286 264.644,315.62 266,316.5C 270.171,326.35 274.338,336.184 278.5,346C 276.833,346.667 275.167,346.667 273.5,346C 272.214,343.978 271.214,341.811 270.5,339.5C 265.544,338.506 260.544,338.173 255.5,338.5C 255.245,341.016 254.411,343.35 253,345.5C 251.506,346.747 250.006,346.747 248.5,345.5C 252.848,335.474 257.181,325.474 261.5,315.5 Z M 268.5,333.5 C 265.167,334.833 261.833,334.833 258.5,333.5C 259.987,329.855 261.487,326.188 263,322.5C 264.942,326.192 266.776,329.858 268.5,333.5 Z"/></g>
<g><path style="opacity:1" fill="#3da8af" d="M 314.5,316.5 C 316.167,316.5 317.833,316.5 319.5,316.5C 319.832,326.19 319.498,335.856 318.5,345.5C 317.668,337.187 317.168,328.853 317,320.5C 315.812,321.563 315.312,322.897 315.5,324.5C 314.662,324.842 314.328,325.508 314.5,326.5C 311.994,333.538 308.827,340.204 305,346.5C 303.347,346.18 302.347,345.18 302,343.5C 299.487,337.145 296.987,330.812 294.5,324.5C 294.539,323.244 294.039,322.244 293,321.5C 292.5,329.493 292.334,337.493 292.5,345.5C 291.5,345.5 290.5,345.5 289.5,345.5C 289.5,335.5 289.5,325.5 289.5,315.5C 291.604,315.201 293.604,315.534 295.5,316.5C 298.391,323.95 301.558,331.283 305,338.5C 308.076,331.096 311.243,323.763 314.5,316.5 Z"/></g>
<g><path style="opacity:1" fill="#3da3aa" d="M 350.5,316.5 C 351.946,315.387 353.613,315.22 355.5,316C 357.962,320.426 360.796,324.593 364,328.5C 366.25,324.332 368.75,320.332 371.5,316.5C 373.167,315.167 374.833,315.167 376.5,316.5C 372.803,321.698 369.303,327.031 366,332.5C 365.667,336.833 365.333,341.167 365,345.5C 363.989,346.337 362.822,346.67 361.5,346.5C 361.666,341.821 361.499,337.155 361,332.5C 357.725,326.93 354.225,321.597 350.5,316.5 Z"/></g>
<g><path style="opacity:1" fill="#3ea3aa" d="M 396.5,315.5 C 398.144,315.286 399.644,315.62 401,316.5C 405.038,326.074 409.204,335.574 413.5,345C 412.407,346.365 411.074,346.699 409.5,346C 407.983,343.796 406.65,341.462 405.5,339C 400.833,338.333 396.167,338.333 391.5,339C 390.167,341.333 388.833,343.667 387.5,346C 385.926,346.699 384.593,346.365 383.5,345C 388.321,335.367 392.654,325.534 396.5,315.5 Z M 403.5,333.5 C 400.167,334.833 396.833,334.833 393.5,333.5C 394.969,329.769 396.635,326.102 398.5,322.5C 400.365,326.102 402.031,329.769 403.5,333.5 Z"/></g>
<g><path style="opacity:1" fill="#3eabb2" d="M 446.5,316.5 C 447.5,316.5 448.5,316.5 449.5,316.5C 449.5,326.167 449.5,335.833 449.5,345.5C 448.116,346.801 446.616,346.801 445,345.5C 439.913,337.659 434.58,329.992 429,322.5C 428.667,330.167 428.333,337.833 428,345.5C 426.989,346.337 425.822,346.67 424.5,346.5C 424.5,336.167 424.5,325.833 424.5,315.5C 427.044,315.104 429.211,315.771 431,317.5C 436,324.833 441,332.167 446,339.5C 446.5,331.841 446.666,324.174 446.5,316.5 Z"/></g>
<g><path style="opacity:1" fill="#388489" d="M 446.5,316.5 C 447.568,315.566 448.901,315.232 450.5,315.5C 450.827,325.681 450.494,335.681 449.5,345.5C 449.5,335.833 449.5,326.167 449.5,316.5C 448.5,316.5 447.5,316.5 446.5,316.5 Z"/></g>
<g><path style="opacity:1" fill="#388489" d="M 314.5,316.5 C 316.265,315.539 318.265,315.205 320.5,315.5C 320.5,325.833 320.5,336.167 320.5,346.5C 319.167,346.5 317.833,346.5 316.5,346.5C 317.126,339.416 316.459,332.75 314.5,326.5C 314.328,325.508 314.662,324.842 315.5,324.5C 315.312,322.897 315.812,321.563 317,320.5C 317.168,328.853 317.668,337.187 318.5,345.5C 319.498,335.856 319.832,326.19 319.5,316.5C 317.833,316.5 316.167,316.5 314.5,316.5 Z"/></g>
<g><path style="opacity:1" fill="#376f73" d="M 490.5,329.5 C 487.167,329.5 483.833,329.5 480.5,329.5C 480.5,330.5 480.5,331.5 480.5,332.5C 479.566,331.432 479.232,330.099 479.5,328.5C 483.371,328.185 487.038,328.518 490.5,329.5 Z"/></g>
<g><path style="opacity:1" fill="#000000" d="M 393.5,333.5 C 396.833,334.833 400.167,334.833 403.5,333.5C 404.043,333.56 404.376,333.893 404.5,334.5C 400.5,335.833 396.5,335.833 392.5,334.5C 392.624,333.893 392.957,333.56 393.5,333.5 Z"/></g>
<g><path style="opacity:1" fill="#000000" d="M 258.5,333.5 C 261.833,334.833 265.167,334.833 268.5,333.5C 269.043,333.56 269.376,333.893 269.5,334.5C 265.5,335.833 261.5,335.833 257.5,334.5C 257.624,333.893 257.957,333.56 258.5,333.5 Z"/></g>
<g><path style="opacity:1" fill="#31696c" d="M 294.5,324.5 C 293.508,331.648 293.175,338.981 293.5,346.5C 291.901,346.768 290.568,346.434 289.5,345.5C 290.5,345.5 291.5,345.5 292.5,345.5C 292.334,337.493 292.5,329.493 293,321.5C 294.039,322.244 294.539,323.244 294.5,324.5 Z"/></g>
</svg>
