<?xml version="1.0" encoding="UTF-8"?>
<!DOCTYPE svg PUBLIC "-//W3C//DTD SVG 1.1//EN" "http://www.w3.org/Graphics/SVG/1.1/DTD/svg11.dtd">
<svg xmlns="http://www.w3.org/2000/svg" version="1.1" width="1920px" height="964px" style="shape-rendering:geometricPrecision; text-rendering:geometricPrecision; image-rendering:optimizeQuality; fill-rule:evenodd; clip-rule:evenodd" xmlns:xlink="http://www.w3.org/1999/xlink">
<g><path style="opacity:1" fill="#fefefe" d="M -0.5,-0.5 C 639.5,-0.5 1279.5,-0.5 1919.5,-0.5C 1919.5,320.833 1919.5,642.167 1919.5,963.5C 1279.5,963.5 639.5,963.5 -0.5,963.5C -0.5,642.167 -0.5,320.833 -0.5,-0.5 Z"/></g>
<g><path style="opacity:1" fill="#aa989f" d="M 940.5,420.5 C 942.776,420.668 945.109,421.001 947.5,421.5C 948.652,424.106 948.818,426.773 948,429.5C 946.333,430.833 944.667,430.833 943,429.5C 942.798,431.256 942.298,432.922 941.5,434.5C 940.507,429.88 940.173,425.214 940.5,420.5 Z"/></g>
<g><path style="opacity:1" fill="#aa989f" d="M 951.5,420.5 C 953.776,420.668 956.109,421.001 958.5,421.5C 959.652,424.106 959.818,426.773 959,429.5C 957.333,430.833 955.667,430.833 954,429.5C 953.798,431.256 953.298,432.922 952.5,434.5C 951.507,429.88 951.173,425.214 951.5,420.5 Z"/></g>
<g><path style="opacity:1" fill="#400c01" d="M 917.5,417.5 C 918.461,419.265 918.795,421.265 918.5,423.5C 920.833,423.5 923.167,423.5 925.5,423.5C 926.833,423.833 926.833,424.167 925.5,424.5C 923.167,424.5 920.833,424.5 918.5,424.5C 918.662,426.527 918.495,428.527 918,430.5C 917.501,426.179 917.334,421.846 917.5,417.5 Z"/></g>
<g><path style="opacity:1" fill="#701915" d="M 969.5,421.5 C 970.884,420.199 972.384,420.199 974,421.5C 974.667,424.5 974.667,427.5 974,430.5C 973.667,427.833 973.333,425.167 973,422.5C 971.989,421.663 970.822,421.33 969.5,421.5 Z"/></g>
<g><path style="opacity:1" fill="#6e758f" d="M 1001.5,426.5 C 998.023,426.388 996.523,424.721 997,421.5C 998.713,423.076 1000.21,424.743 1001.5,426.5 Z"/></g>
<g><path style="opacity:1" fill="#0f4a92" d="M 969.5,421.5 C 968.759,424.413 968.259,427.413 968,430.5C 967.333,427.167 967.333,423.833 968,420.5C 968.383,421.056 968.883,421.389 969.5,421.5 Z"/></g>
<g><path style="opacity:1" fill="#863a1c" d="M 978.5,422.5 C 978.205,424.735 978.539,426.735 979.5,428.5C 979.44,429.043 979.107,429.376 978.5,429.5C 977.203,427.027 977.203,424.693 978.5,422.5 Z"/></g>
<g><path style="opacity:1" fill="#2c304b" d="M 979.5,428.5 C 978.539,426.735 978.205,424.735 978.5,422.5C 979.659,420.623 981.326,420.123 983.5,421C 981.714,421.196 980.381,422.029 979.5,423.5C 981.688,424.241 983.688,424.574 985.5,424.5C 983.604,425.466 981.604,425.799 979.5,425.5C 979.5,426.5 979.5,427.5 979.5,428.5 Z"/></g>
<g><path style="opacity:1" fill="#564a54" d="M 988.5,420.5 C 992.838,420.622 993.172,420.955 989.5,421.5C 989.83,424.109 991.33,425.776 994,426.5C 994.749,427.635 994.583,428.635 993.5,429.5C 992.689,427.609 991.356,426.276 989.5,425.5C 988.548,423.955 988.215,422.288 988.5,420.5 Z"/></g>
<g><path style="opacity:1" fill="#504d65" d="M 934.5,429.5 C 935.234,428.292 935.567,426.959 935.5,425.5C 932.5,425.167 931.167,426.5 931.5,429.5C 930.402,428.399 930.235,427.066 931,425.5C 938.163,424.368 938.33,422.868 931.5,421C 936.23,419.396 938.23,421.063 937.5,426C 937.333,427.5 937.167,429 937,430.5C 936.329,429.748 935.496,429.414 934.5,429.5 Z"/></g>
<g><path style="opacity:1" fill="#cecfce" d="M 934.5,429.5 C 933.5,430.833 932.5,430.833 931.5,429.5C 931.167,426.5 932.5,425.167 935.5,425.5C 935.567,426.959 935.234,428.292 934.5,429.5 Z"/></g>
<g><path style="opacity:1" fill="#665d78" d="M 1001.5,426.5 C 1002.43,427.568 1002.77,428.901 1002.5,430.5C 1000.47,430.662 998.473,430.495 996.5,430C 998.134,429.506 999.801,429.34 1001.5,429.5C 1001.5,428.5 1001.5,427.5 1001.5,426.5 Z"/></g>
<g><path style="opacity:1" fill="#111111" d="M 874.5,459.5 C 931.501,459.333 988.501,459.5 1045.5,460C 1046.65,467.754 1046.81,475.587 1046,483.5C 988.904,484.664 931.737,484.831 874.5,484C 873.181,475.833 873.181,467.667 874.5,459.5 Z"/></g>
<g><path style="opacity:1" fill="#fefefe" d="M 875.5,461.5 C 931.833,461.5 988.167,461.5 1044.5,461.5C 1044.5,468.5 1044.5,475.5 1044.5,482.5C 988.167,482.5 931.833,482.5 875.5,482.5C 875.5,475.5 875.5,468.5 875.5,461.5 Z"/></g>
<g><path style="opacity:1" fill="#cdcdcd" d="M 866.5,521.5 C 928.834,521.333 991.168,521.5 1053.5,522C 1054,522.5 1054.5,523 1055,523.5C 1055.67,533.167 1055.67,542.833 1055,552.5C 1054.5,553 1054,553.5 1053.5,554C 1036.17,554.333 1018.83,554.667 1001.5,555C 1002,555.5 1002.5,556 1003,556.5C 1003.67,566.5 1003.67,576.5 1003,586.5C 1002.5,587 1002,587.5 1001.5,588C 973.5,588.667 945.5,588.667 917.5,588C 917,587.5 916.5,587 916,586.5C 915.333,576.5 915.333,566.5 916,556.5C 916.5,556 917,555.5 917.5,555C 900.5,554.667 883.5,554.333 866.5,554C 866,553.5 865.5,553 865,552.5C 864.333,542.833 864.333,533.167 865,523.5C 865.717,522.956 866.217,522.289 866.5,521.5 Z"/></g>
<g><path style="opacity:1" fill="#fbfbfb" d="M 867.5,522.5 C 929.168,522.333 990.834,522.5 1052.5,523C 1053,523.5 1053.5,524 1054,524.5C 1054.67,533.5 1054.67,542.5 1054,551.5C 1053.5,552 1053,552.5 1052.5,553C 990.833,553.667 929.167,553.667 867.5,553C 867,552.5 866.5,552 866,551.5C 865.333,542.5 865.333,533.5 866,524.5C 866.717,523.956 867.217,523.289 867.5,522.5 Z"/></g>
<g><path style="opacity:1" fill="#798dba" d="M 958.5,535.5 C 960.035,537.939 960.868,540.606 961,543.5C 959.269,541.138 958.435,538.471 958.5,535.5 Z"/></g>
<g><path style="opacity:1" fill="#60525f" d="M 930.5,536.5 C 931.158,537.398 931.824,538.398 932.5,539.5C 933.5,536.833 934.5,536.833 935.5,539.5C 933.579,540.641 931.579,540.808 929.5,540C 930.337,538.989 930.67,537.822 930.5,536.5 Z"/></g>
<g><path style="opacity:1" fill="#94633e" d="M 988.5,532.5 C 989.46,542.637 989.46,543.971 988.5,536.5C 983.167,536.167 983.167,535.833 988.5,535.5C 988.5,534.5 988.5,533.5 988.5,532.5 Z"/></g>
<g><path style="opacity:1" fill="#4487be" d="M 978.5,535.5 C 979.289,535.783 979.956,536.283 980.5,537C 979.736,539.069 979.236,541.236 979,543.5C 978.503,540.854 978.336,538.187 978.5,535.5 Z"/></g>
<g><path style="opacity:1" fill="#b38962" d="M 942.5,532.5 C 943.482,535.962 943.815,539.629 943.5,543.5C 939.162,543.378 938.828,543.045 942.5,542.5C 942.5,540.5 942.5,538.5 942.5,536.5C 938.5,536.167 938.5,535.833 942.5,535.5C 942.5,534.5 942.5,533.5 942.5,532.5 Z"/></g>
<g><path style="opacity:1" fill="#fdfdfd" d="M 918.5,555.5 C 945.835,555.333 973.169,555.5 1000.5,556C 1001,556.5 1001.5,557 1002,557.5C 1002.67,566.833 1002.67,576.167 1002,585.5C 1001.5,586 1001,586.5 1000.5,587C 973.167,587.667 945.833,587.667 918.5,587C 918,586.5 917.5,586 917,585.5C 916.333,576.167 916.333,566.833 917,557.5C 917.717,556.956 918.217,556.289 918.5,555.5 Z"/></g>
<g><path style="opacity:1" fill="#7b7b7b" d="M 933.5,571.5 C 934.458,571.953 935.292,572.619 936,573.5C 936.333,571.167 936.667,568.833 937,566.5C 937.824,569.882 937.657,573.216 936.5,576.5C 935.048,575.06 934.048,573.394 933.5,571.5 Z"/></g>
<g><path style="opacity:1" fill="#858585" d="M 962.5,567.5 C 964.628,566.371 966.961,566.204 969.5,567C 967.961,569.878 966.961,573.045 966.5,576.5C 965.516,573.572 965.183,570.572 965.5,567.5C 964.5,567.5 963.5,567.5 962.5,567.5 Z"/></g>
<g><path style="opacity:1" fill="#909090" d="M 973.5,569.5 C 974.919,568.549 976.585,568.216 978.5,568.5C 978.813,571.247 978.48,573.914 977.5,576.5C 976.526,574.257 976.192,571.924 976.5,569.5C 975.5,569.5 974.5,569.5 973.5,569.5 Z"/></g>
<g><path style="opacity:1" fill="#a3a3a3" d="M 933.5,571.5 C 932.883,571.389 932.383,571.056 932,570.5C 931.808,572.577 931.308,574.577 930.5,576.5C 929.167,573.167 929.167,569.833 930.5,566.5C 932.262,567.688 933.262,569.355 933.5,571.5 Z"/></g>
<g><path style="opacity:1" fill="#b8b8b8" d="M 941.5,568.5 C 943.891,569.408 946.224,569.574 948.5,569C 950.883,570.8 952.55,573.133 953.5,576C 951.887,576.089 950.72,575.255 950,573.5C 949.626,574.416 949.126,575.25 948.5,576C 940.773,577.789 938.44,575.289 941.5,568.5 Z"/></g>
<g><path style="opacity:1" fill="#686868" d="M 955.5,566.5 C 956.309,567.469 957.309,568.302 958.5,569C 955.833,571.333 955.833,573.667 958.5,576C 957.552,576.483 956.552,576.649 955.5,576.5C 955.163,572.989 955.163,569.656 955.5,566.5 Z"/></g>
<g><path style="opacity:1" fill="#989898" d="M 981.5,569.5 C 982.884,568.199 984.384,568.199 986,569.5C 986.497,571.81 986.663,574.143 986.5,576.5C 984.5,576.5 982.5,576.5 980.5,576.5C 979.843,573.159 981.176,571.159 984.5,570.5C 983.675,569.614 982.675,569.281 981.5,569.5 Z"/></g>
<g><path style="opacity:1" fill="#6d6d6d" d="M 973.5,569.5 C 972.79,571.746 972.29,574.08 972,576.5C 971.333,573.833 971.333,571.167 972,568.5C 972.383,569.056 972.883,569.389 973.5,569.5 Z"/></g>
<g><path style="opacity:1" fill="#d4d4d4" d="M 1603.5,873.5 C 1604.5,873.5 1605.5,873.5 1606.5,873.5C 1607.67,878.174 1609.34,882.674 1611.5,887C 1609.07,887.333 1608.07,886.166 1608.5,883.5C 1604.53,882.758 1601.7,884.091 1600,887.5C 1600.63,882.754 1601.8,878.087 1603.5,873.5 Z"/></g>
<g><path style="opacity:1" fill="#cbcbcb" d="M 1674.5,874.5 C 1675.19,873.226 1676.02,873.226 1677,874.5C 1679.42,887.59 1681.26,887.257 1682.5,873.5C 1683.5,873.5 1684.5,873.5 1685.5,873.5C 1686.22,876.843 1687.06,880.176 1688,883.5C 1689.25,880.639 1690.25,877.639 1691,874.5C 1691.72,873.549 1692.55,873.383 1693.5,874C 1691.75,878.012 1690.41,882.179 1689.5,886.5C 1688.73,887.711 1687.89,887.711 1687,886.5C 1684.58,874.722 1682.75,875.055 1681.5,887.5C 1680.5,887.5 1679.5,887.5 1678.5,887.5C 1677.61,882.928 1676.28,878.595 1674.5,874.5 Z"/></g>
</svg>
